<?xml version="1.0" encoding="UTF-8"?><svg id="Layer_1" xmlns="http://www.w3.org/2000/svg" viewBox="0 0 16 16"><defs><style>.cls-1{fill:#6c4971;}</style></defs><path class="cls-1" d="M6,13.83c0,.51.07.9.2,1.16.14.26.42.45.87.55.44.1,1.1.15,1.96.15.05,0,.08.05.08.15s-.03.15-.08.15c-.54,0-1.13,0-1.77-.03-.64-.02-1.33-.03-2.08-.03-.56,0-1.1,0-1.62.03-.52.02-.98.03-1.39.03-.03,0-.05-.05-.05-.15s.02-.15.05-.15c.63,0,1.1-.04,1.4-.13.31-.08.51-.25.61-.51s.15-.63.15-1.12V2.14c0-.49-.05-.86-.15-1.11-.1-.25-.31-.42-.61-.51-.31-.09-.77-.14-1.4-.14-.03,0-.05-.05-.05-.15s.02-.15.05-.15c.41,0,.87.01,1.38.04s1.04.04,1.61.04c.44,0,.98-.03,1.62-.08C7.41.03,8.05,0,8.7,0,9.67,0,10.54.14,11.31.43c.77.29,1.39.74,1.85,1.35.46.61.7,1.41.71,2.39,0,.9-.17,1.67-.5,2.32-.33.65-.77,1.18-1.32,1.59-.55.42-1.16.73-1.82.93-.66.2-1.32.31-1.99.31-.2,0-.41,0-.62-.03-.21-.02-.41-.05-.6-.1-.07-.02-.09-.08-.06-.19.03-.11.06-.16.11-.14.15.03.31.06.47.08.16.02.31.03.45.03.7,0,1.35-.15,1.96-.46.61-.31,1.1-.78,1.48-1.41.37-.64.56-1.43.56-2.38s-.17-1.72-.51-2.36c-.34-.64-.81-1.13-1.4-1.46-.59-.34-1.26-.51-1.99-.51-.56,0-.99.03-1.29.09-.3.06-.51.22-.62.47-.12.25-.18.67-.18,1.25v11.64Z"/><circle class="cls-1" cx="12.93" cy="15.05" r=".95"/></svg>