<?xml version="1.0" encoding="UTF-8"?><svg id="Layer_1" xmlns="http://www.w3.org/2000/svg" viewBox="0 0 512 512"><defs><style>.cls-1{fill:#6c4971;}</style></defs><path class="cls-1" d="M192,442.7c0,16.31,2.17,28.67,6.52,37.1,4.34,8.43,13.58,14.27,27.72,17.53,14.13,3.26,35.06,4.89,62.78,4.89,1.63,0,2.45,1.63,2.45,4.89s-.82,4.89-2.45,4.89c-17.4,0-36.28-.27-56.66-.81-20.38-.54-42.54-.82-66.45-.82-17.94,0-35.2.28-51.77.82-16.59.55-31.39.81-44.43.81-1.1,0-1.63-1.63-1.63-4.89s.54-4.89,1.63-4.89c20.1,0,35.06-1.35,44.84-4.08,9.78-2.71,16.31-8.15,19.57-16.31,3.26-8.15,4.89-20.1,4.89-35.87V68.48c0-15.76-1.63-27.58-4.89-35.47-3.26-7.87-9.78-13.31-19.57-16.31-9.78-2.98-24.74-4.48-44.84-4.48-1.1,0-1.63-1.63-1.63-4.89s.54-4.89,1.63-4.89c13.04,0,27.72.41,44.03,1.22,16.31.82,33.43,1.22,51.36,1.22,14.13,0,31.39-.81,51.77-2.45C237.25.82,257.76,0,278.42,0,309.4,0,337.25,4.62,361.99,13.86c24.73,9.25,44.43,23.64,59.11,43.21,14.68,19.57,22.28,45.12,22.83,76.64,0,28.82-5.3,53.54-15.9,74.19-10.6,20.66-24.74,37.64-42.39,50.96-17.67,13.32-37.1,23.24-58.29,29.76-21.2,6.52-42.39,9.78-63.59,9.78-6.52,0-13.18-.27-19.97-.81-6.8-.54-13.19-1.63-19.16-3.26-2.18-.54-2.85-2.57-2.04-6.11.82-3.53,2.04-5.02,3.67-4.48,4.89,1.1,9.91,1.91,15.08,2.45,5.16.55,9.91.82,14.27.82,22.28,0,43.21-4.89,62.78-14.68,19.57-9.78,35.33-24.87,47.29-45.25,11.95-20.38,17.94-45.78,17.94-76.23s-5.44-55.03-16.31-75.41c-10.88-20.38-25.82-36-44.84-46.88-19.03-10.87-40.23-16.31-63.59-16.31-17.94,0-31.67.96-41.17,2.85-9.52,1.91-16.18,6.93-19.97,15.08-3.81,8.15-5.71,21.48-5.71,39.95v372.59Z"/><circle class="cls-1" cx="413.68" cy="481.76" r="30.24"/></svg>